# xmcd
#
# Track frame offsets:
#	150
#	12256
#	28173
#	45037
#	60752
#	74565
#	88399
#	103856
#	116666
#	130625
#	144319
#	154252
#
# Disc length: 2236 seconds
#
# Revision: 0
# Processed by: cddbd v1.5.1PL2 Copyright (c) Steve Scherf et al.
# Submitted via: EasyCDDAExtractor 8.2.3.1
#
DISCID=9b08ba0c
DTITLE=Jacó e Jacózinho - O mundo é das mulheres
DYEAR=1968
DGENRE=Sertanejo
TTITLE0=Bala na boca
TTITLE1=Violinha barulhenta
TTITLE2=Na curva do caminho
TTITLE3=Moça namoradeira
TTITLE4=Meu recanto
TTITLE5=O mundo é das mulheres
TTITLE6=Desate que eu quero ver
TTITLE7=Guerra de amor
TTITLE8=Pai João
TTITLE9=Mundo vazio
TTITLE10=Em tudo falta amor
TTITLE11=Triste canção
EXTD=
EXTT0=
EXTT1=
EXTT2=
EXTT3=
EXTT4=
EXTT5=
EXTT6=
EXTT7=
EXTT8=
EXTT9=
EXTT10=
EXTT11=
PLAYORDER=
